<svg xmlns="http://www.w3.org/2000/svg" viewBox="0 0 762.87 518.99"><defs><style>.cls-1{fill:#f6993e;}.cls-2{fill:#ea4962;}.cls-3{fill:#00363d;}.cls-4{fill:#efc928;}.cls-5{fill:#37b7ae;}.cls-6{fill:#ea6651;}.cls-7{fill:#30a9bb;}.cls-8{fill:#78a200;}</style></defs><title>header-shapes</title><g id="Layer_2" data-name="Layer 2"><g id="Layer_1-2" data-name="Layer 1"><path class="cls-1" d="M349.06,519a1.11,1.11,0,0,1,.07-.33,62.31,62.31,0,0,0-24.6-84.6l-30.16,54.86Z"/><polygon class="cls-2" points="563.94 513.17 663.4 413.7 762.87 513.17 563.94 513.17"/><path class="cls-3" d="M304.6,300.39c-39.34-9.72-80.21,18.7-88.89,53.59L358.3,389.21C366.87,354.3,343.94,310.11,304.6,300.39Z"/><path class="cls-4" d="M425.49,333.72c68.79,0,124.57-48.51,124.65-124.5H300.84C300.92,285.2,356.7,333.72,425.49,333.72Z"/><circle class="cls-5" cx="443.36" cy="432.47" r="86.52"/><circle class="cls-3" cx="506.79" cy="145.23" r="48.26"/><rect class="cls-3" x="181.85" y="385.77" width="101.37" height="101.37" transform="translate(-105.27 75.27) rotate(-15.04)"/><polygon class="cls-6" points="352.81 110.2 352.81 25.16 267.77 25.16 267.77 110.2 267.77 130.92 267.77 195.25 339.31 195.25 352.81 195.25 437.85 195.25 437.85 110.2 352.81 110.2"/><polygon class="cls-7" points="0 513.17 96.25 347.21 192.49 513.17 0 513.17"/><polygon class="cls-7" points="364.4 54.77 458.27 0 459.19 108.67 364.4 54.77"/><polygon class="cls-8" points="254.16 224.46 173.09 194.19 144.92 269.63 144.89 269.61 112.51 356.34 193.59 386.61 223.86 305.52 223.9 305.54 254.16 224.46"/><rect class="cls-3" x="544.21" y="417.1" width="52.48" height="52.48" transform="translate(1239.99 714.74) rotate(164.21)"/><path class="cls-1" d="M575.13,403.75a1.18,1.18,0,0,1-.48-.21,117.11,117.11,0,0,1-.15-165.41l83.12,83.12Z"/><polygon class="cls-2" points="250.33 295.21 264.68 271.13 288.75 285.48 250.33 295.21"/></g></g></svg>